#!OML:ASF E:\Style4\Style4.ASF
:FULLY-SPECIFIED
:DEGREES
4290
root 0.147256 17.6825 -2.25776 11.6569 -1.04586 2.06385
lowerback 15.6995 1.53293 0.320733
upperback 10.6229 2.02983 0.40097
thorax 2.48408 1.01813 -0.0260106
lowerneck -0.256766 -4.44709 -5.93335
upperneck -12.9419 -5.78133 4.61023
head -3.88392 -2.8068 2.77417
rclavicle -1.98785e-014 1.19271e-015
rhumerus 56.9626 1.31227 -8.87999
rradius 69.9973
rwrist -87.8531
rhand -7.06065 13.7012
rfingers 7.12502
rthumb 18.8125 -15.4091
lclavicle -1.98785e-014 1.19271e-015
lhumerus 63.264 -2.67122 15.7399
lradius 69.2597
lwrist 75.7401
lhand 4.71731 27.7476
lfingers 7.12502
lthumb 30.1003 55.3166
rfemur -35.8252 -2.77603 17.0494
rtibia 38.9753
rfoot -13.9809 -13.7386
rtoes -14.5393
lfemur -34.1515 1.99204 -20.7346
ltibia 36.1554
lfoot -12.9523 7.51087
ltoes -16.8724
4291
root 0.166061 17.6694 -2.26777 11.7289 -1.13153 2.14378
lowerback 16.2418 1.52936 0.0438302
upperback 10.3281 1.99207 0.438335
thorax 1.87213 0.983311 0.15277
lowerneck -0.264997 -4.36618 -5.85158
upperneck -12.6606 -5.69345 4.3792
head -3.79532 -2.75976 2.6683
rclavicle 0 3.97569e-016
rhumerus 56.9126 1.90051 -8.84974
rradius 70.1857
rwrist -87.936
rhand -7.083 13.6052
rfingers 7.12502
rthumb 18.791 -15.5072
lclavicle 0 3.97569e-016
lhumerus 62.8746 -3.18723 15.6413
lradius 69.4893
lwrist 75.8672
lhand 4.74369 27.767
lfingers 7.12502
lthumb 30.1255 55.3315
rfemur -36.1778 -2.81255 16.895
rtibia 39.3555
rfoot -13.9171 -13.6428
rtoes -14.9535
lfemur -34.4277 2.11229 -20.9356
ltibia 36.4157
lfoot -12.9493 7.4769
ltoes -17.0737
4292
root 0.186925 17.6568 -2.27853 11.7629 -1.2382 2.16147
lowerback 16.4082 1.56505 0.0484862
upperback 10.3072 2.03796 0.401909
thorax 1.76474 1.00727 0.100442
lowerneck -0.267378 -4.39513 -5.82968
upperneck -12.6286 -5.73298 4.37261
head -3.78178 -2.7807 2.66159
rclavicle 1.98785e-015 1.59028e-015
rhumerus 56.683 2.11892 -8.87808
rradius 70.3556
rwrist -87.9586
rhand -7.08965 13.4871
rfingers 7.12502
rthumb 18.7846 -15.6259
lclavicle 1.98785e-015 1.59028e-015
lhumerus 62.8031 -3.43041 15.4918
lradius 69.7999
lwrist 76.0805
lhand 4.6618 27.7845
lfingers 7.12502
lthumb 30.0473 55.3632
rfemur -36.4828 -2.76268 16.7785
rtibia 39.7291
rfoot -13.9579 -13.53
rtoes -14.943
lfemur -34.6574 2.1948 -21.0542
ltibia 36.6799
lfoot -13.0328 7.50236
ltoes -17.3777
4293
root 0.207478 17.6433 -2.28764 11.8076 -1.34653 2.19724
lowerback 16.3024 1.61011 0.0406811
upperback 10.4583 2.09437 0.390348
thorax 1.9829 1.03534 0.0906665
lowerneck -0.363205 -4.4301 -6.01301
upperneck -12.6726 -5.76204 4.55838
head -3.76822 -2.79378 2.7563
rclavicle -2.46493e-014 1.03368e-014
rhumerus 56.5145 2.09716 -8.85132
rradius 70.5032
rwrist -87.9468
rhand -7.13485 13.3603
rfingers 7.12502
rthumb 18.7411 -15.7569
lclavicle -2.46493e-014 1.03368e-014
lhumerus 62.8261 -3.47479 15.4116
lradius 70.1149
lwrist 76.1688
lhand 4.47648 27.7849
lfingers 7.12502
lthumb 29.8705 55.3955
rfemur -36.7785 -2.70393 16.6474
rtibia 40.0911
rfoot -14.0016 -13.4784
rtoes -15.2849
lfemur -34.8869 2.3278 -21.207
ltibia 36.9624
lfoot -13.1457 7.4721
ltoes -17.7347
4294
root 0.227473 17.6293 -2.29603 11.8396 -1.39846 2.27801
lowerback 16.4607 1.59102 -0.170198
upperback 10.4415 2.04221 0.461672
thorax 1.87286 0.996633 0.286424
lowerneck -0.344431 -4.3551 -6.07024
upperneck -12.734 -5.67742 4.42304
head -3.80128 -2.74256 2.72184
rclavicle -6.75868e-015 -4.37326e-015
rhumerus 56.5712 2.3142 -8.73244
rradius 70.712
rwrist -88.013
rhand -7.158 13.3322
rfingers 7.12502
rthumb 18.7189 -15.7871
lclavicle -6.75868e-015 -4.37326e-015
lhumerus 62.511 -3.67087 15.372
lradius 70.4071
lwrist 76.2155
lhand 4.36225 27.8714
lfingers 7.12502
lthumb 29.7615 55.5016
rfemur -37.0392 -2.75775 16.4909
rtibia 40.4274
rfoot -14.0596 -13.3897
rtoes -15.588
lfemur -35.1061 2.48875 -21.4162
ltibia 37.2566
lfoot -13.2737 7.32815
ltoes -17.7448
4295
root 0.24659 17.6159 -2.30465 11.8651 -1.42227 2.29977
lowerback 16.3225 1.57114 -0.0264107
upperback 10.5984 2.03411 0.368671
thorax 2.12255 1.00252 0.116327
lowerneck -0.281333 -4.36555 -5.97178
upperneck -12.9052 -5.68668 4.4709
head -3.87484 -2.75244 2.72935
rclavicle 2.78299e-015 3.97569e-016
rhumerus 56.3744 2.28985 -8.8259
rradius 70.8795
rwrist -88.0512
rhand -7.14606 13.2837
rfingers 7.12502
rthumb 18.7303 -15.8345
lclavicle 2.78299e-015 3.97569e-016
lhumerus 62.5956 -3.72608 15.1616
lradius 70.6199
lwrist 76.2307
lhand 4.31434 27.9537
lfingers 7.12502
lthumb 29.7158 55.592
rfemur -37.2799 -2.81226 16.4009
rtibia 40.7327
rfoot -14.1357 -13.2839
rtoes -15.7261
lfemur -35.3332 2.49683 -21.515
ltibia 37.5627
lfoot -13.4264 7.29557
ltoes -17.5426
4296
root 0.263367 17.6031 -2.31343 11.9008 -1.44574 2.30118
lowerback 16.4072 1.57421 -0.0498454
upperback 10.5881 2.03472 0.398077
thorax 2.06562 1.00055 0.157652
lowerneck -0.209105 -4.37228 -5.94325
upperneck -12.8778 -5.70801 4.39199
head -3.88038 -2.76187 2.69946
rclavicle -1.15295e-014 3.18055e-015
rhumerus 56.2105 2.53884 -8.84465
rradius 71.0813
rwrist -88.024
rhand -7.14178 13.2587
rfingers 7.12502
rthumb 18.7345 -15.8591
lclavicle -1.15295e-014 3.18055e-015
lhumerus 62.4591 -3.97104 15.0351
lradius 70.8787
lwrist 76.2765
lhand 4.36671 27.8035
lfingers 7.12502
lthumb 29.7657 55.433
rfemur -37.5092 -2.83301 16.3394
rtibia 41.0097
rfoot -14.1744 -13.2224
rtoes -16.0593
lfemur -35.5685 2.39741 -21.5582
ltibia 37.8693
lfoot -13.6308 7.37014
ltoes -17.035
4297
root 0.27839 17.5888 -2.32247 11.9349 -1.50363 2.28241
lowerback 16.6577 1.5661 -0.0884502
upperback 10.4768 2.01829 0.40513
thorax 1.81396 0.990024 0.17998
lowerneck -0.0999916 -4.34769 -5.93251
upperneck -12.7816 -5.68324 4.37135
head -3.86928 -2.75082 2.69088
rclavicle -8.34896e-015 -8.34896e-015
rhumerus 56.1106 2.90811 -8.93484
rradius 71.2619
rwrist -88.0452
rhand -7.13257 13.2831
rfingers 7.12502
rthumb 18.7433 -15.8339
lclavicle -8.34896e-015 -8.34896e-015
lhumerus 62.1965 -4.33075 14.8354
lradius 71.2298
lwrist 76.3529
lhand 4.33304 27.5819
lfingers 7.12502
lthumb 29.7336 55.2171
rfemur -37.7442 -2.80708 16.3078
rtibia 41.2715
rfoot -14.138 -13.2517
rtoes -16.4853
lfemur -35.8121 2.41834 -21.5969
ltibia 38.1734
lfoot -13.7823 7.34472
ltoes -16.3822
4298
root 0.295435 17.575 -2.33097 11.9777 -1.53755 2.22979
lowerback 16.6807 1.56386 -0.0613528
upperback 10.488 2.01852 0.443543
thorax 1.81372 0.989943 0.204588
lowerneck -0.0325032 -4.32939 -5.94716
upperneck -12.7477 -5.66313 4.37219
head -3.87105 -2.74096 2.69489
rclavicle 4.37326e-015 1.63003e-014
rhumerus 56.0182 3.09893 -8.89757
rradius 71.4313
rwrist -88.1785
rhand -7.04573 13.2447
rfingers 7.12502
rthumb 18.8268 -15.8642
lclavicle 4.37326e-015 1.63003e-014
lhumerus 62.0328 -4.54229 14.7438
lradius 71.6101
lwrist 76.5367
lhand 3.92791 27.5303
lfingers 7.12502
lthumb 29.3469 55.2339
rfemur -37.9912 -2.87094 16.3249
rtibia 41.5361
rfoot -14.1254 -13.2145
rtoes -16.8948
lfemur -36.0622 2.51498 -21.6291
ltibia 38.4521
lfoot -13.9164 7.21788
ltoes -15.8539
4299
root 0.312194 17.5601 -2.34053 12.0214 -1.55687 2.19886
lowerback 16.7697 1.56523 -0.0616239
upperback 10.4533 2.02017 0.510747
thorax 1.72779 0.988423 0.271858
lowerneck 0.1255 -4.30579 -6.0286
upperneck -12.7916 -5.64398 4.36903
head -3.91673 -2.72772 2.71593
rclavicle -6.75868e-015 7.15625e-015
rhumerus 55.91 3.36471 -8.83272
rradius 71.6354
rwrist -88.1325
rhand -6.96573 13.2035
rfingers 7.12502
rthumb 18.9038 -15.898
lclavicle -6.75868e-015 7.15625e-015
lhumerus 61.9054 -4.79856 14.8568
lradius 71.8416
lwrist 76.6209
lhand 3.87046 27.8547
lfingers 7.12502
lthumb 29.292 55.5679
rfemur -38.2316 -2.92265 16.3026
rtibia 41.8101
rfoot -14.2491 -13.0965
rtoes -16.5253
lfemur -36.288 2.56064 -21.6676
ltibia 38.7106
lfoot -14.0202 7.11184
ltoes -15.5345
4300
root 0.326748 17.5454 -2.34787 12.0042 -1.59243 2.26992
lowerback 16.7721 1.56627 -0.0752911
upperback 10.5382 2.01904 0.481715
thorax 1.81889 0.98806 0.250855
lowerneck 0.137618 -4.31126 -6.07374
upperneck -12.8551 -5.64627 4.44118
head -3.93877 -2.72934 2.75165
rclavicle 1.51076e-014 7.55382e-015
rhumerus 55.7767 3.4856 -8.88203
rradius 71.81
rwrist -88.0237
rhand -6.92634 13.331
rfingers 7.12502
rthumb 18.9417 -15.7667
lclavicle 1.51076e-014 7.55382e-015
lhumerus 61.9259 -4.89998 14.8119
lradius 72.0462
lwrist 76.7106
lhand 4.24879 28.0978
lfingers 7.12502
lthumb 29.6532 55.7473
rfemur -38.4093 -2.94782 16.1667
rtibia 42.092
rfoot -14.3523 -13.0146
rtoes -16.3718
lfemur -36.418 2.61179 -21.8024
ltibia 38.9453
lfoot -14.1994 6.91108
ltoes -14.5148
4301
root 0.340335 17.5315 -2.35339 11.9792 -1.68102 2.3113
lowerback 16.9873 1.56542 -0.171643
upperback 10.478 2.00408 0.471785
thorax 1.64003 0.976202 0.289799
lowerneck 0.0622887 -4.27996 -6.07341
upperneck -12.6678 -5.59894 4.44887
head -3.85994 -2.70792 2.74359
rclavicle -8.34896e-015 -3.97569e-016
rhumerus 55.7329 3.79111 -8.94935
rradius 71.9432
rwrist -88.0736
rhand -6.82838 13.4858
rfingers 7.12502
rthumb 19.0359 -15.6026
lclavicle -8.34896e-015 -3.97569e-016
lhumerus 61.767 -5.14882 14.6928
lradius 72.2759
lwrist 76.8503
lhand 4.52537 28.1779
lfingers 7.12502
lthumb 29.9172 55.7801
rfemur -38.5789 -2.89902 16.0594
rtibia 42.3643
rfoot -14.4403 -13.0016
rtoes -16.4276
lfemur -36.5295 2.71727 -21.9172
ltibia 39.183
lfoot -14.3426 6.83774
ltoes -14.4903
